<svg xmlns="http://www.w3.org/2000/svg" width="547.787" height="434.521" viewBox="0 0 547.787 434.521">
  <g id="undraw_tourist_map_re_293e" transform="translate(-22.387 -12.726)">
    <path id="Trazado_1" data-name="Trazado 1" d="M364.108,553.577h-1.858a.93.93,0,0,1-.929-.929V550.79a.93.93,0,0,1,.929-.929h1.858a.93.93,0,0,1,.929.929v1.858a.93.93,0,0,1-.929.929Z" transform="translate(-258.354 -230.656)" fill="#ccc"/>
    <path id="Trazado_2" data-name="Trazado 2" d="M363.513,543.268a.6.6,0,0,1-.106-.009.619.619,0,0,1-.505-.715l6.124-35.634a.619.619,0,1,1,1.221.21l-6.124,35.634A.619.619,0,0,1,363.513,543.268Z" transform="translate(-258.653 -222.394)" fill="#ccc"/>
    <path id="Trazado_3" data-name="Trazado 3" d="M362.074,543.268a.619.619,0,0,1-.61-.514l-6.124-35.634a.619.619,0,0,1,1.221-.21l6.124,35.634a.619.619,0,0,1-.505.715A.6.6,0,0,1,362.074,543.268Z" transform="translate(-257.216 -222.394)" fill="#ccc"/>
    <path id="Trazado_4" data-name="Trazado 4" d="M377.037,497.489c.6-4.229-1.661-8.044-5.045-8.522s-6.609,2.563-7.206,6.792c-.5,3.566,1.028,6.83,3.549,8.054l-.144,1.017,3.063.432.143-1.017C374.158,503.768,376.534,501.055,377.037,497.489Z" transform="translate(-258.995 -219.072)" fill="#c57b57"/>
    <path id="Trazado_5" data-name="Trazado 5" d="M359.482,495.568c-.733-4.207-4.055-7.143-7.421-6.557s-5.5,4.472-4.768,8.68c.618,3.548,3.079,6.183,5.854,6.572l.176,1.012,3.047-.531-.176-1.012C358.674,502.428,360.1,499.117,359.482,495.568Z" transform="translate(-255.66 -219.076)" fill="#ccc"/>
    <path id="Trazado_6" data-name="Trazado 6" d="M363.47,542.121a.619.619,0,0,1-.619-.619V504.87a.619.619,0,0,1,1.238,0V541.5a.619.619,0,0,1-.619.619Z" transform="translate(-258.645 -221.987)" fill="#ccc"/>
    <path id="Trazado_7" data-name="Trazado 7" d="M367.876,494.514c0-4.271-2.77-7.733-6.186-7.733s-6.186,3.462-6.186,7.733c0,3.6,1.973,6.62,4.64,7.479v1.027h3.093v-1.027C365.9,501.133,367.876,498.115,367.876,494.514Z" transform="translate(-257.248 -218.666)" fill="#b1d0c1"/>
    <path id="Trazado_9" data-name="Trazado 9" d="M918.285,281.656c0-11.91-9.662-40.173-21.58-40.173s-21.58,28.262-21.58,40.173a21.58,21.58,0,0,0,43.16,0Z" transform="translate(-356.013 -172.042)" fill="#3f3d56"/>
    <path id="Trazado_10" data-name="Trazado 10" d="M901.711,338.146a.247.247,0,0,1-.247-.247V287.523a.247.247,0,0,1,.494,0V337.9a.247.247,0,0,1-.247.247Z" transform="translate(-361.019 -180.746)" fill="#ccc"/>
    <path id="Trazado_11" data-name="Trazado 11" d="M898.8,295.727a.246.246,0,0,1-.187-.085L886.2,281.329a.247.247,0,1,1,.373-.323l12.411,14.313a.247.247,0,0,1-.186.408Z" transform="translate(-358.106 -179.538)" fill="#ccc"/>
    <path id="Trazado_12" data-name="Trazado 12" d="M901.712,307.629a.247.247,0,0,1-.174-.421l7.052-7.052a.247.247,0,1,1,.349.349l-7.052,7.052a.246.246,0,0,1-.174.072Z" transform="translate(-361.019 -183.18)" fill="#ccc"/>
    <path id="Trazado_13" data-name="Trazado 13" d="M872.911,347.566a9.009,9.009,0,0,1,18.018,0" transform="translate(-355.592 -190.493)" fill="#f2f2f2"/>
    <path id="Trazado_14" data-name="Trazado 14" d="M883.977,348.452a.243.243,0,0,1-.243-.243V343.46a.243.243,0,0,1,.487,0v4.748a.243.243,0,0,1-.243.244Z" transform="translate(-357.649 -191.379)" fill="#ccc"/>
    <path id="Trazado_15" data-name="Trazado 15" d="M883.292,346.963a.243.243,0,0,1-.159-.059l-2.922-2.508a.244.244,0,0,1,.317-.37l2.922,2.508a.244.244,0,0,1-.159.428Z" transform="translate(-356.963 -191.522)" fill="#ccc"/>
    <path id="Trazado_16" data-name="Trazado 16" d="M907.183,347.566a9.009,9.009,0,0,1,18.018,0" transform="translate(-362.106 -190.493)" fill="#f2f2f2"/>
    <path id="Trazado_17" data-name="Trazado 17" d="M918.249,348.452a.243.243,0,0,1-.243-.243V343.46a.243.243,0,0,1,.487,0v4.748a.243.243,0,0,1-.243.244Z" transform="translate(-364.163 -191.379)" fill="#ccc"/>
    <path id="Trazado_18" data-name="Trazado 18" d="M917.563,346.963a.242.242,0,0,1-.159-.059l-2.922-2.508a.244.244,0,0,1,.317-.37l2.922,2.508a.243.243,0,0,1-.159.428Z" transform="translate(-363.477 -191.522)" fill="#ccc"/>
    <path id="Trazado_19" data-name="Trazado 19" d="M569.959,239.431c5.919-8.472,13.091-33.377,4.613-39.3s-29.4,9.38-35.314,17.852a18.725,18.725,0,1,0,30.7,21.448Z" transform="translate(-291.533 -163.93)" fill="#f2f2f2"/>
    <path id="Trazado_20" data-name="Trazado 20" d="M529.662,269.193a.214.214,0,0,1-.053-.3l25.034-35.835a.214.214,0,1,1,.351.245L529.96,269.14a.214.214,0,0,1-.3.053Z" transform="translate(-290.333 -170.424)" fill="#ccc"/>
    <path id="Trazado_21" data-name="Trazado 21" d="M554.545,237.572a.213.213,0,0,1-.091-.153l-1.716-16.349a.214.214,0,0,1,.426-.045l1.716,16.349a.214.214,0,0,1-.336.2Z" transform="translate(-294.737 -168.117)" fill="#ccc"/>
    <path id="Trazado_22" data-name="Trazado 22" d="M549.88,248.308a.214.214,0,0,1,.085-.386l8.521-1.512a.214.214,0,0,1,.075.422l-8.521,1.512a.213.213,0,0,1-.16-.035Z" transform="translate(-294.176 -172.978)" fill="#ccc"/>
    <path id="Trazado_23" data-name="Trazado 23" d="M509.356,262.282a7.817,7.817,0,0,1,12.817,8.954" transform="translate(-286.491 -175.36)" fill="#f2f2f2"/>
    <path id="Trazado_24" data-name="Trazado 24" d="M517.247,267.711a.211.211,0,0,1-.052-.294l2.359-3.377a.211.211,0,0,1,.346.242l-2.36,3.377A.211.211,0,0,1,517.247,267.711Z" transform="translate(-287.974 -176.312)" fill="#ccc"/>
    <path id="Trazado_25" data-name="Trazado 25" d="M518.053,266.311a.21.21,0,0,1-.083-.121l-.832-3.236a.211.211,0,0,1,.409-.105l.832,3.236a.211.211,0,0,1-.326.226Z" transform="translate(-287.969 -176.073)" fill="#ccc"/>
    <path id="Trazado_26" data-name="Trazado 26" d="M533.735,279.313a7.817,7.817,0,1,1,12.817,8.954" transform="translate(-291.125 -178.598)" fill="#f2f2f2"/>
    <path id="Trazado_27" data-name="Trazado 27" d="M541.626,284.742a.211.211,0,0,1-.052-.294l2.359-3.377a.211.211,0,0,1,.346.242l-2.359,3.377a.211.211,0,0,1-.294.052Z" transform="translate(-292.607 -179.549)" fill="#ccc"/>
    <path id="Trazado_28" data-name="Trazado 28" d="M542.432,283.342a.21.21,0,0,1-.084-.121l-.832-3.236a.211.211,0,0,1,.409-.105l.832,3.236a.211.211,0,0,1-.326.226Z" transform="translate(-292.602 -179.31)" fill="#ccc"/>
    <path id="Trazado_29" data-name="Trazado 29" d="M670.733,474.01q7.142,6.559,14.19,13.213c-1.206.067-2.458.121-3.743.161-1.815.06-3.7.087-5.686.087-21.745,0-32.781-3.569-43.442-7.025-10.126-3.275-19.689-6.369-39.324-6.369s-29.205,3.094-39.324,6.369c-10.668,3.456-21.7,7.025-43.449,7.025s-32.781-3.569-43.449-7.025c-9.891-3.2-19.247-6.228-37.985-6.362-.442-.007-.884-.007-1.339-.007V460.684c.449,0,.9,0,1.339.007,20.867.141,31.663,3.636,42.11,7.012,10.126,3.281,19.689,6.375,39.324,6.375s29.2-3.094,39.324-6.375c10.668-3.449,21.7-7.018,43.449-7.018s32.774,3.569,43.442,7.018c8.458,2.739,16.528,5.351,30.4,6.134C667.907,473.917,669.286,473.97,670.733,474.01Z" transform="translate(-270.872 -213.706)" fill="#b1d0c1"/>
    <path id="Trazado_30" data-name="Trazado 30" d="M905.835,474.077v13.394c-21.751,0-32.781-3.569-43.449-7.025-10.126-3.275-19.689-6.369-39.324-6.369s-29.2,3.094-39.33,6.369c-.549.181-1.1.355-1.661.536-.951.308-1.915.616-2.893.917q-5.545-5.434-11.13-10.775c1.038-.254,2.042-.522,3.034-.8,2.953-.817,5.719-1.714,8.532-2.625,10.668-3.449,21.7-7.018,43.449-7.018s32.781,3.569,43.449,7.018C876.636,470.983,886.2,474.077,905.835,474.077Z" transform="translate(-335.66 -213.706)" fill="#b1d0c1"/>
    <path id="Trazado_31" data-name="Trazado 31" d="M513.665,318.514c-37.489-27.3-76.933-53.193-117.228-76.947l-2.022-1.192v80.563H516.994Zm-116.572-.254V245.07c38.333,22.675,75.868,47.28,111.663,73.19Zm306.3,165.82q-24.319-25.284-49.9-49.416-7.052-6.66-14.19-13.213-43.566-40.02-90-76.123l-.362-.281H394.415v141.3H705.576Zm-306.3-.408V347.725H548.027q44.772,34.827,87.119,73.551,7.353,6.72,14.606,13.548,25.354,23.827,49.523,48.847Zm306.3.408q-24.319-25.284-49.9-49.416-7.052-6.66-14.19-13.213-43.566-40.02-90-76.123l-.362-.281H394.415v141.3H705.576Zm-306.3-.408V347.725H548.027q44.772,34.827,87.119,73.551,7.353,6.72,14.606,13.548,25.354,23.827,49.523,48.847ZM513.665,318.514c-37.489-27.3-76.933-53.193-117.228-76.947l-2.022-1.192v80.563H516.994Zm-116.572-.254V245.07c38.333,22.675,75.868,47.28,111.663,73.19Zm116.572.254c-37.489-27.3-76.933-53.193-117.228-76.947l-2.022-1.192v80.563H516.994Zm-116.572-.254V245.07c38.333,22.675,75.868,47.28,111.663,73.19Zm306.3,165.82q-24.319-25.284-49.9-49.416-7.052-6.66-14.19-13.213-43.566-40.02-90-76.123l-.362-.281H394.415v141.3H705.576Zm-306.3-.408V347.725H548.027q44.772,34.827,87.119,73.551,7.353,6.72,14.606,13.548,25.354,23.827,49.523,48.847ZM261.831,510.458v2.679h105.8v38.842h-105.8v2.679H370.306v-44.2Zm132.584,68.308v27.142l2.679-.248V581.444H809.618v-2.679Zm415.2-65.629v-2.679h-415.2v44.2h415.2v-2.679H397.094V513.137ZM559.458,318.259A1307.071,1307.071,0,0,0,397.094,211.277V184.155l-2.679.248v27.332L396.478,214A1304.376,1304.376,0,0,1,558.186,320.657l.362.281H809.618v-2.679Zm-191.831,0h-105.8v2.679H370.306V186.64l-2.679.248Zm441.991,26.787H588.9l2.886,2.371q40.763,33.541,80.047,71.147,5.585,5.344,11.13,10.775,27.6,26.971,54.13,55.7l2.208,1.306h70.318v-2.679H739.469q-26.238-28.448-53.615-55.249-5.474-5.364-10.989-10.655-38.433-36.876-78.507-70.042H809.618ZM261.831,578.766v2.679h105.8v26.948l2.679-.248V578.766Zm0-233.719v2.679h105.8V483.671h-105.8v2.679H370.306v-141.3Zm251.834-26.533c-37.489-27.3-76.933-53.193-117.228-76.947l-2.022-1.192v80.563H516.994Zm-116.572-.254V245.07c38.333,22.675,75.868,47.28,111.663,73.19Zm306.3,165.82q-24.319-25.284-49.9-49.416-7.052-6.66-14.19-13.213-43.566-40.02-90-76.123l-.362-.281H394.415v141.3H705.576Zm-306.3-.408V347.725H548.027q44.772,34.827,87.119,73.551,7.353,6.72,14.606,13.548,25.354,23.827,49.523,48.847ZM513.665,318.514c-37.489-27.3-76.933-53.193-117.228-76.947l-2.022-1.192v80.563H516.994Zm-116.572-.254V245.07c38.333,22.675,75.868,47.28,111.663,73.19Zm306.3,165.82q-24.319-25.284-49.9-49.416-7.052-6.66-14.19-13.213-43.566-40.02-90-76.123l-.362-.281H394.415v141.3H705.576Zm-306.3-.408V347.725H548.027q44.772,34.827,87.119,73.551,7.353,6.72,14.606,13.548,25.354,23.827,49.523,48.847Z" transform="translate(-239.444 -161.146)" fill="#3f3d56"/>
    <path id="Trazado_32" data-name="Trazado 32" d="M659.267,453.178c0-11.794,9.561-39.781,21.355-39.781s21.355,27.987,21.355,39.781a21.355,21.355,0,1,1-42.711,0Z" transform="translate(-314.985 -204.718)" fill="#f2f2f2"/>
    <path id="Trazado_33" data-name="Trazado 33" d="M685.593,509.3a.176.176,0,0,1-.176-.176V435.5a.176.176,0,1,1,.351,0v73.626a.176.176,0,0,1-.176.176Z" transform="translate(-319.955 -208.885)" fill="#3f3d56"/>
    <path id="Trazado_34" data-name="Trazado 34" d="M683.609,451.024a.175.175,0,0,1-.124-.051l-8.452-8.452a.176.176,0,1,1,.248-.248l8.452,8.452a.176.176,0,0,1-.124.3Z" transform="translate(-317.971 -210.196)" fill="#3f3d56"/>
    <path id="Trazado_35" data-name="Trazado 35" d="M685.593,467.752a.176.176,0,0,1-.124-.3L699.623,453.3a.176.176,0,1,1,.248.248L685.717,467.7A.175.175,0,0,1,685.593,467.752Z" transform="translate(-319.955 -212.292)" fill="#3f3d56"/>
    <path id="Trazado_36" data-name="Trazado 36" d="M807.107,378.762c0-11.794,9.561-39.781,21.355-39.781s21.355,27.987,21.355,39.781a21.355,21.355,0,1,1-42.711,0Z" transform="translate(-343.084 -190.574)" fill="#b1d0c1"/>
    <path id="Trazado_37" data-name="Trazado 37" d="M833.432,434.885a.176.176,0,0,1-.176-.176V361.083a.176.176,0,0,1,.351,0v73.626A.176.176,0,0,1,833.432,434.885Z" transform="translate(-348.055 -194.741)" fill="#3f3d56"/>
    <path id="Trazado_38" data-name="Trazado 38" d="M831.449,376.608a.175.175,0,0,1-.124-.051l-8.452-8.452a.176.176,0,0,1,.248-.248l8.452,8.452a.176.176,0,0,1-.124.3Z" transform="translate(-346.071 -196.052)" fill="#3f3d56"/>
    <path id="Trazado_39" data-name="Trazado 39" d="M833.432,393.336a.176.176,0,0,1-.124-.3l14.155-14.155a.176.176,0,1,1,.248.248l-14.155,14.155a.175.175,0,0,1-.124.051Z" transform="translate(-348.055 -198.148)" fill="#3f3d56"/>
    <path id="Trazado_40" data-name="Trazado 40" d="M483.392,386.2c0-11.794,9.561-39.781,21.355-39.781S526.1,374.41,526.1,386.2a21.355,21.355,0,0,1-42.711,0Z" transform="translate(-281.556 -191.988)" fill="#b1d0c1"/>
    <path id="Trazado_41" data-name="Trazado 41" d="M509.718,442.327a.176.176,0,0,1-.176-.176V368.525a.176.176,0,1,1,.351,0v73.626a.176.176,0,0,1-.176.176Z" transform="translate(-286.526 -196.156)" fill="#3f3d56"/>
    <path id="Trazado_42" data-name="Trazado 42" d="M507.734,384.05a.175.175,0,0,1-.124-.051l-8.452-8.452a.176.176,0,0,1,.248-.248l8.452,8.452a.176.176,0,0,1-.124.3Z" transform="translate(-284.543 -197.467)" fill="#3f3d56"/>
    <path id="Trazado_43" data-name="Trazado 43" d="M509.718,400.778a.176.176,0,0,1-.124-.3l14.155-14.155a.176.176,0,1,1,.248.248l-14.155,14.155A.175.175,0,0,1,509.718,400.778Z" transform="translate(-286.526 -199.562)" fill="#3f3d56"/>
    <path id="Trazado_44" data-name="Trazado 44" d="M712.264,294.111a61.326,61.326,0,1,1,61.326-61.326,61.326,61.326,0,0,1-61.326,61.326Zm0-121.829a60.5,60.5,0,1,0,60.5,60.5,60.5,60.5,0,0,0-60.5-60.5Z" transform="translate(-313.401 -158.733)" fill="#ccc"/>
    <path id="Trazado_45" data-name="Trazado 45" d="M726.559,228.257a.412.412,0,0,1-.411-.412V171.87a.412.412,0,1,1,.823,0v55.975a.412.412,0,0,1-.411.412Z" transform="translate(-327.697 -158.733)" fill="#ccc"/>
    <path id="Trazado_46" data-name="Trazado 46" d="M788.632,247.491H732.657a.412.412,0,1,1,0-.823h55.975a.412.412,0,1,1,0,.823Z" transform="translate(-328.856 -173.028)" fill="#ccc"/>
    <path id="Trazado_47" data-name="Trazado 47" d="M707.331,247.491H651.382a.412.412,0,0,1,0-.823h55.949a.412.412,0,1,1,0,.823Z" transform="translate(-313.408 -173.028)" fill="#ccc"/>
    <path id="Trazado_48" data-name="Trazado 48" d="M726.559,309.565a.412.412,0,0,1-.411-.412V253.178a.412.412,0,1,1,.823,0v55.975a.412.412,0,0,1-.412.412Z" transform="translate(-327.697 -174.187)" fill="#ccc"/>
    <path id="Trazado_49" data-name="Trazado 49" d="M731.039,234.114a.412.412,0,0,1-.291-.7l39.407-39.407a.412.412,0,1,1,.582.582L731.33,233.994a.41.41,0,0,1-.291.121Z" transform="translate(-328.548 -162.995)" fill="#ccc"/>
    <path id="Trazado_50" data-name="Trazado 50" d="M712.831,234.114a.41.41,0,0,1-.291-.121l-39.407-39.407a.412.412,0,1,1,.582-.582l39.407,39.407a.412.412,0,0,1-.291.7Z" transform="translate(-317.597 -162.995)" fill="#ccc"/>
    <path id="Trazado_51" data-name="Trazado 51" d="M770.446,291.027a.41.41,0,0,1-.291-.121L730.748,251.5a.412.412,0,1,1,.582-.582l39.406,39.407a.412.412,0,0,1-.291.7Z" transform="translate(-328.548 -173.813)" fill="#ccc"/>
    <path id="Trazado_52" data-name="Trazado 52" d="M673.424,291.027a.412.412,0,0,1-.291-.7l39.407-39.407a.412.412,0,0,1,.582.582l-39.407,39.407A.41.41,0,0,1,673.424,291.027Z" transform="translate(-317.597 -173.813)" fill="#ccc"/>
    <path id="Trazado_53" data-name="Trazado 53" d="M716.755,279.463a42.187,42.187,0,1,1,42.187-42.187,42.187,42.187,0,0,1-42.187,42.187Zm0-83.552a41.364,41.364,0,1,0,41.364,41.364A41.364,41.364,0,0,0,716.755,195.912Z" transform="translate(-317.893 -163.224)" fill="#ccc"/>
    <circle id="Elipse_1" data-name="Elipse 1" cx="4.939" cy="4.939" r="4.939" transform="translate(393.923 69.113)" fill="#3f3d56"/>
    <path id="Trazado_54" data-name="Trazado 54" d="M462.585,171.417l-4.339.126,21.179-85.484,3.936,1.2Z" transform="translate(-82.844 -13.938)" fill="#3f3d56"/>
    <path id="Trazado_55" data-name="Trazado 55" d="M505.944,171.417l4.339.126L489.1,86.058l-3.936,1.2Z" transform="translate(-87.961 -13.938)" fill="#3f3d56"/>
    <rect id="Rectángulo_8" data-name="Rectángulo 8" width="13.582" height="7.409" transform="translate(391.866 25.485)" fill="#ccc"/>
    <rect id="Rectángulo_9" data-name="Rectángulo 9" width="5.351" height="5.762" transform="translate(392.689 27.131)" fill="#fff"/>
    <rect id="Rectángulo_10" data-name="Rectángulo 10" width="5.351" height="5.762" transform="translate(399.274 27.131)" fill="#fff"/>
    <path id="Trazado_56" data-name="Trazado 56" d="M724.566,203.95a7.829,7.829,0,0,1-7.82-7.82v-.206a1.854,1.854,0,0,1,1.852-1.852h11.936a1.854,1.854,0,0,1,1.852,1.852v.206A7.829,7.829,0,0,1,724.566,203.95Z" transform="translate(-325.91 -163.031)" fill="#ccc"/>
    <path id="Trazado_57" data-name="Trazado 57" d="M730.968,187.857H718.4a1.029,1.029,0,0,1-.92-1.489l2.47-4.939a1.023,1.023,0,0,1,.92-.569H728.5a1.023,1.023,0,0,1,.92.569l2.469,4.939a1.029,1.029,0,0,1-.92,1.489Z" transform="translate(-326.029 -160.52)" fill="#b1d0c1"/>
    <rect id="Rectángulo_11" data-name="Rectángulo 11" width="13.582" height="7.409" transform="translate(428.497 41.948)" fill="#ccc"/>
    <rect id="Rectángulo_12" data-name="Rectángulo 12" width="5.351" height="5.762" transform="translate(429.32 43.595)" fill="#fff"/>
    <rect id="Rectángulo_13" data-name="Rectángulo 13" width="5.351" height="5.762" transform="translate(435.905 43.595)" fill="#fff"/>
    <path id="Trazado_58" data-name="Trazado 58" d="M769.794,224.277a7.829,7.829,0,0,1-7.82-7.82v-.206a1.854,1.854,0,0,1,1.852-1.852h11.936a1.854,1.854,0,0,1,1.852,1.852v.206A7.829,7.829,0,0,1,769.794,224.277Z" transform="translate(-334.506 -166.894)" fill="#ccc"/>
    <path id="Trazado_59" data-name="Trazado 59" d="M766.2,201.695a.614.614,0,0,0-.552.341l-2.47,4.939a.617.617,0,0,0,.552.894h12.565a.617.617,0,0,0,.552-.893l-2.469-4.939a.614.614,0,0,0-.552-.341Z" transform="translate(-334.722 -164.48)" fill="#b1d0c1"/>
    <rect id="Rectángulo_14" data-name="Rectángulo 14" width="13.582" height="7.409" transform="translate(442.902 78.991)" fill="#ccc"/>
    <rect id="Rectángulo_15" data-name="Rectángulo 15" width="5.351" height="5.762" transform="translate(443.725 80.637)" fill="#fff"/>
    <rect id="Rectángulo_16" data-name="Rectángulo 16" width="5.351" height="5.762" transform="translate(450.31 80.637)" fill="#fff"/>
    <path id="Trazado_60" data-name="Trazado 60" d="M787.58,270.013a7.829,7.829,0,0,1-7.82-7.82v-.206a1.854,1.854,0,0,1,1.852-1.852h11.936a1.854,1.854,0,0,1,1.852,1.852v.206A7.829,7.829,0,0,1,787.58,270.013Z" transform="translate(-337.887 -175.587)" fill="#ccc"/>
    <path id="Trazado_61" data-name="Trazado 61" d="M793.981,253.919H781.417a1.029,1.029,0,0,1-.92-1.489l2.469-4.939a1.023,1.023,0,0,1,.92-.569h7.626a1.023,1.023,0,0,1,.92.569l2.469,4.939a1.029,1.029,0,0,1-.92,1.489Z" transform="translate(-338.006 -173.076)" fill="#b1d0c1"/>
    <rect id="Rectángulo_17" data-name="Rectángulo 17" width="13.582" height="7.409" transform="translate(427.673 113.564)" fill="#ccc"/>
    <rect id="Rectángulo_18" data-name="Rectángulo 18" width="5.351" height="5.762" transform="translate(428.497 115.21)" fill="#fff"/>
    <rect id="Rectángulo_19" data-name="Rectángulo 19" width="5.351" height="5.762" transform="translate(435.082 115.21)" fill="#fff"/>
    <path id="Trazado_62" data-name="Trazado 62" d="M768.777,312.7a7.829,7.829,0,0,1-7.82-7.82v-.206a1.854,1.854,0,0,1,1.852-1.852h11.936a1.854,1.854,0,0,1,1.852,1.852v.206A7.829,7.829,0,0,1,768.777,312.7Z" transform="translate(-334.313 -183.701)" fill="#ccc"/>
    <path id="Trazado_63" data-name="Trazado 63" d="M775.179,296.606H762.614a1.029,1.029,0,0,1-.92-1.489l2.469-4.939a1.023,1.023,0,0,1,.92-.569h7.626a1.023,1.023,0,0,1,.92.569l2.469,4.939a1.029,1.029,0,0,1-.92,1.489Z" transform="translate(-334.432 -181.189)" fill="#b1d0c1"/>
    <rect id="Rectángulo_20" data-name="Rectángulo 20" width="13.582" height="7.409" transform="translate(369.228 49.357) rotate(180)" fill="#ccc"/>
    <rect id="Rectángulo_21" data-name="Rectángulo 21" width="5.351" height="5.762" transform="translate(368.405 49.357) rotate(180)" fill="#fff"/>
    <rect id="Rectángulo_22" data-name="Rectángulo 22" width="5.351" height="5.762" transform="translate(361.82 49.357) rotate(180)" fill="#fff"/>
    <path id="Trazado_64" data-name="Trazado 64" d="M679.847,224.277a7.829,7.829,0,0,1-7.82-7.82v-.206a1.854,1.854,0,0,1,1.852-1.852h11.936a1.854,1.854,0,0,1,1.852,1.852v.206A7.829,7.829,0,0,1,679.847,224.277Z" transform="translate(-317.41 -166.894)" fill="#ccc"/>
    <path id="Trazado_65" data-name="Trazado 65" d="M686.249,208.184H673.684a1.029,1.029,0,0,1-.92-1.489l2.469-4.939a1.023,1.023,0,0,1,.92-.569h7.626a1.023,1.023,0,0,1,.92.569l2.469,4.939a1.029,1.029,0,0,1-.92,1.489Z" transform="translate(-317.529 -164.383)" fill="#b1d0c1"/>
    <rect id="Rectángulo_23" data-name="Rectángulo 23" width="13.582" height="7.409" transform="translate(354.823 86.4) rotate(180)" fill="#ccc"/>
    <rect id="Rectángulo_24" data-name="Rectángulo 24" width="5.351" height="5.762" transform="translate(354 86.4) rotate(180)" fill="#fff"/>
    <rect id="Rectángulo_25" data-name="Rectángulo 25" width="5.351" height="5.762" transform="translate(347.414 86.4) rotate(180)" fill="#fff"/>
    <path id="Trazado_66" data-name="Trazado 66" d="M662.061,270.013a7.829,7.829,0,0,1-7.82-7.82v-.206a1.854,1.854,0,0,1,1.852-1.852h11.936a1.854,1.854,0,0,1,1.852,1.852v.206A7.829,7.829,0,0,1,662.061,270.013Z" transform="translate(-314.029 -175.587)" fill="#ccc"/>
    <path id="Trazado_67" data-name="Trazado 67" d="M668.463,253.919H655.9a1.029,1.029,0,0,1-.92-1.489l2.47-4.939a1.023,1.023,0,0,1,.92-.569h7.626a1.023,1.023,0,0,1,.92.569l2.469,4.939a1.029,1.029,0,0,1-.92,1.489Z" transform="translate(-314.149 -173.076)" fill="#b1d0c1"/>
    <rect id="Rectángulo_26" data-name="Rectángulo 26" width="13.582" height="7.409" transform="translate(370.052 120.973) rotate(180)" fill="#ccc"/>
    <rect id="Rectángulo_27" data-name="Rectángulo 27" width="5.351" height="5.762" transform="translate(369.228 120.973) rotate(180)" fill="#fff"/>
    <rect id="Rectángulo_28" data-name="Rectángulo 28" width="5.351" height="5.762" transform="translate(362.643 120.973) rotate(180)" fill="#fff"/>
    <path id="Trazado_68" data-name="Trazado 68" d="M680.863,312.7a7.829,7.829,0,0,1-7.82-7.82v-.206a1.854,1.854,0,0,1,1.852-1.852h11.936a1.854,1.854,0,0,1,1.852,1.852v.206A7.829,7.829,0,0,1,680.863,312.7Z" transform="translate(-317.603 -183.701)" fill="#ccc"/>
    <path id="Trazado_69" data-name="Trazado 69" d="M687.265,296.606H674.7a1.029,1.029,0,0,1-.92-1.489l2.47-4.939a1.023,1.023,0,0,1,.92-.569H684.8a1.023,1.023,0,0,1,.92.569l2.469,4.939a1.029,1.029,0,0,1-.92,1.489Z" transform="translate(-317.722 -181.189)" fill="#b1d0c1"/>
    <rect id="Rectángulo_29" data-name="Rectángulo 29" width="13.582" height="7.409" transform="translate(391.866 129.204)" fill="#ccc"/>
    <rect id="Rectángulo_30" data-name="Rectángulo 30" width="5.351" height="5.762" transform="translate(392.689 130.851)" fill="#fff"/>
    <rect id="Rectángulo_31" data-name="Rectángulo 31" width="5.351" height="5.762" transform="translate(399.274 130.851)" fill="#fff"/>
    <path id="Trazado_70" data-name="Trazado 70" d="M718.695,322.64a1.442,1.442,0,0,0-1.441,1.441v.206a7.409,7.409,0,0,0,14.817,0v-.206a1.442,1.442,0,0,0-1.441-1.441Z" transform="translate(-326.006 -187.468)" fill="#ccc"/>
    <path id="Trazado_71" data-name="Trazado 71" d="M720.969,309.427a.614.614,0,0,0-.552.341l-2.469,4.939a.617.617,0,0,0,.552.894h12.565a.617.617,0,0,0,.552-.893l-2.469-4.939a.614.614,0,0,0-.552-.341Z" transform="translate(-326.126 -184.956)" fill="#b1d0c1"/>
    <path id="Trazado_72" data-name="Trazado 72" d="M493.742,441.218a.464.464,0,0,0,0-.929H489.33v-1.858h4.412a.464.464,0,1,0,0-.929H456.124a.464.464,0,1,0,0,.929h4.412v1.858h-4.412a.464.464,0,1,0,0,.929h4.412v1.858h-4.412a.464.464,0,1,0,0,.929h4.412v1.858h-3.948a.929.929,0,0,0,0,1.858h3.758a.691.691,0,0,0-.043.232v6.5a.7.7,0,0,0,1.393,0v-6.5a.692.692,0,0,0-.043-.232h26.557a.69.69,0,0,0-.043.232v6.5a.7.7,0,1,0,1.393,0v-6.5a.693.693,0,0,0-.043-.232h3.758a.929.929,0,0,0,0-1.858H489.33V444h4.412a.464.464,0,0,0,0-.929H489.33v-1.858Zm-32.277-2.786H488.4v1.858H461.465Zm26.936,7.431H461.465V444H488.4Zm0-2.786H461.465v-1.858H488.4Z" transform="translate(-276.285 -209.3)" fill="#3f3d56"/>
    <path id="Trazado_73" data-name="Trazado 73" d="M672.924,509.846a.464.464,0,0,0,0-.929h-4.412v-1.858h4.412a.464.464,0,1,0,0-.929H635.306a.464.464,0,1,0,0,.929h4.412v1.858h-4.412a.464.464,0,1,0,0,.929h4.412V511.7h-4.412a.464.464,0,1,0,0,.929h4.412v1.858H635.77a.929.929,0,0,0,0,1.858h3.758a.692.692,0,0,0-.043.232v6.5a.7.7,0,1,0,1.393,0v-6.5a.694.694,0,0,0-.043-.232h26.557a.692.692,0,0,0-.043.232v6.5a.7.7,0,0,0,1.393,0v-6.5a.693.693,0,0,0-.043-.232h3.758a.929.929,0,0,0,0-1.858h-3.947v-1.858h4.412a.464.464,0,1,0,0-.929h-4.412v-1.858Zm-32.277-2.786h26.936v1.858H640.647Zm26.936,7.431H640.647v-1.858h26.936Zm0-2.786H640.647v-1.858h26.936Z" transform="translate(-310.342 -222.344)" fill="#3f3d56"/>
    <path id="Trazado_74" data-name="Trazado 74" d="M817.456,434.6a.464.464,0,1,0,0-.929h-4.412v-1.858h4.412a.464.464,0,1,0,0-.929H779.839a.464.464,0,1,0,0,.929h4.412v1.858h-4.412a.464.464,0,1,0,0,.929h4.412v1.858h-4.412a.464.464,0,1,0,0,.929h4.412v1.858H780.3a.929.929,0,1,0,0,1.858h3.758a.693.693,0,0,0-.043.232v6.5a.7.7,0,0,0,1.393,0v-6.5a.693.693,0,0,0-.043-.232h26.557a.692.692,0,0,0-.043.232v6.5a.7.7,0,0,0,1.393,0v-6.5a.692.692,0,0,0-.043-.232h3.758a.929.929,0,0,0,0-1.858h-3.948V437.39h4.412a.464.464,0,1,0,0-.929h-4.412V434.6Zm-32.277-2.786h26.936v1.858H785.179Zm26.936,7.431H785.179V437.39h26.936Zm0-2.786H785.179V434.6h26.936Z" transform="translate(-337.813 -208.042)" fill="#3f3d56"/>
    <path id="Trazado_75" data-name="Trazado 75" d="M598.588,570.223c0-11.91-9.662-40.172-21.58-40.172s-21.58,28.262-21.58,40.172a21.58,21.58,0,1,0,43.16,0Z" transform="translate(-295.248 -226.89)" fill="#f2f2f2"/>
    <path id="Trazado_76" data-name="Trazado 76" d="M582.014,626.713a.247.247,0,0,1-.247-.247V576.09a.247.247,0,0,1,.494,0v50.377a.247.247,0,0,1-.247.247Z" transform="translate(-300.254 -235.594)" fill="#ccc"/>
    <path id="Trazado_77" data-name="Trazado 77" d="M579.1,584.294a.246.246,0,0,1-.187-.085L566.5,569.9a.247.247,0,1,1,.373-.323l12.411,14.313a.247.247,0,0,1-.186.408Z" transform="translate(-297.342 -234.386)" fill="#ccc"/>
    <path id="Trazado_78" data-name="Trazado 78" d="M582.014,596.2a.247.247,0,0,1-.174-.421l7.052-7.052a.247.247,0,0,1,.349.349l-7.052,7.052A.246.246,0,0,1,582.014,596.2Z" transform="translate(-300.254 -238.028)" fill="#ccc"/>
    <path id="Trazado_79" data-name="Trazado 79" d="M344.458,281.656c0-11.91-9.662-40.173-21.58-40.173s-21.58,28.262-21.58,40.173a21.58,21.58,0,1,0,43.16,0Z" transform="translate(-246.945 -172.042)" fill="#3f3d56"/>
    <path id="Trazado_80" data-name="Trazado 80" d="M327.884,338.146a.247.247,0,0,1-.247-.247V287.523a.247.247,0,0,1,.494,0V337.9a.247.247,0,0,1-.247.247Z" transform="translate(-251.952 -180.746)" fill="#ccc"/>
    <path id="Trazado_81" data-name="Trazado 81" d="M324.972,295.727a.246.246,0,0,1-.187-.085l-12.411-14.313a.247.247,0,0,1,.373-.323l12.411,14.313a.247.247,0,0,1-.186.408Z" transform="translate(-249.039 -179.538)" fill="#ccc"/>
    <path id="Trazado_82" data-name="Trazado 82" d="M327.885,307.629a.247.247,0,0,1-.174-.421l7.052-7.052a.247.247,0,1,1,.349.349l-7.052,7.052A.246.246,0,0,1,327.885,307.629Z" transform="translate(-251.952 -183.18)" fill="#ccc"/>
    <path id="Trazado_83" data-name="Trazado 83" d="M299.084,347.566a9.009,9.009,0,1,1,18.018,0" transform="translate(-246.525 -190.493)" fill="#f2f2f2"/>
    <path id="Trazado_84" data-name="Trazado 84" d="M310.15,348.452a.243.243,0,0,1-.243-.243V343.46a.243.243,0,0,1,.487,0v4.748a.243.243,0,0,1-.243.244Z" transform="translate(-248.582 -191.379)" fill="#ccc"/>
    <path id="Trazado_85" data-name="Trazado 85" d="M309.464,346.963a.242.242,0,0,1-.158-.059l-2.922-2.508a.244.244,0,0,1,.317-.37l2.922,2.508a.243.243,0,0,1-.159.428Z" transform="translate(-247.896 -191.522)" fill="#ccc"/>
    <path id="Trazado_86" data-name="Trazado 86" d="M333.356,347.566a9.009,9.009,0,0,1,18.018,0" transform="translate(-253.039 -190.493)" fill="#f2f2f2"/>
    <path id="Trazado_87" data-name="Trazado 87" d="M344.422,348.452a.243.243,0,0,1-.244-.243V343.46a.243.243,0,1,1,.487,0v4.748a.243.243,0,0,1-.243.244Z" transform="translate(-255.096 -191.379)" fill="#ccc"/>
    <path id="Trazado_88" data-name="Trazado 88" d="M343.736,346.963a.242.242,0,0,1-.158-.059l-2.922-2.508a.244.244,0,1,1,.317-.37l2.922,2.508a.243.243,0,0,1-.159.428Z" transform="translate(-254.41 -191.522)" fill="#ccc"/>
    <path id="Trazado_89" data-name="Trazado 89" d="M904.229,569.4c0-11.91-9.662-40.172-21.58-40.172s-21.58,28.262-21.58,40.172a21.58,21.58,0,0,0,43.16,0Z" transform="translate(-353.341 -226.733)" fill="#b1d0c1"/>
    <path id="Trazado_90" data-name="Trazado 90" d="M887.655,625.886a.247.247,0,0,1-.247-.247V575.263a.247.247,0,1,1,.494,0V625.64A.247.247,0,0,1,887.655,625.886Z" transform="translate(-358.347 -235.437)" fill="#ccc"/>
    <path id="Trazado_91" data-name="Trazado 91" d="M884.743,583.467a.246.246,0,0,1-.187-.085l-12.411-14.313a.247.247,0,0,1,.373-.323l12.411,14.313a.247.247,0,0,1-.186.408Z" transform="translate(-355.435 -234.229)" fill="#ccc"/>
    <path id="Trazado_92" data-name="Trazado 92" d="M887.655,595.37a.247.247,0,0,1-.174-.421l7.052-7.052a.247.247,0,1,1,.349.349L887.83,595.3A.245.245,0,0,1,887.655,595.37Z" transform="translate(-358.347 -237.871)" fill="#ccc"/>
    <path id="Trazado_93" data-name="Trazado 93" d="M494.858,581.645h-4.182a1.178,1.178,0,0,1-1.176-1.176V574.98a1.178,1.178,0,0,1,1.176-1.176h4.182a1.178,1.178,0,0,1,1.176,1.176v5.489a1.178,1.178,0,0,1-1.176,1.176Z" transform="translate(-282.717 -235.206)" fill="#3f3d56"/>
    <path id="Trazado_94" data-name="Trazado 94" d="M534.132,627.875H512.7a2.224,2.224,0,0,1-2.222-2.222v-41.56a2.224,2.224,0,0,1,2.222-2.222h21.434a2.224,2.224,0,0,1,2.222,2.222v41.56A2.224,2.224,0,0,1,534.132,627.875Z" transform="translate(-286.704 -236.74)" fill="#3f3d56"/>
    <path id="Trazado_95" data-name="Trazado 95" d="M514.638,627.875H477.521a2.224,2.224,0,0,1-2.222-2.222v-41.56a2.224,2.224,0,0,1,2.222-2.222h37.117a2.224,2.224,0,0,1,2.222,2.222v41.56A2.224,2.224,0,0,1,514.638,627.875Z" transform="translate(-280.018 -236.74)" fill="#b1d0c1"/>
    <path id="Trazado_96" data-name="Trazado 96" d="M490.017,581.645h-4.182a1.178,1.178,0,0,1-1.176-1.176V574.98a1.178,1.178,0,0,1,1.176-1.176h4.182a1.178,1.178,0,0,1,1.176,1.176v5.489a1.178,1.178,0,0,1-1.176,1.176Z" transform="translate(-281.797 -235.206)" fill="#b1d0c1"/>
    <path id="Trazado_97" data-name="Trazado 97" d="M496.732,605.12h-4.966a.654.654,0,0,1-.654-.654v-7.58a.654.654,0,0,1,.653-.653h4.966a.654.654,0,0,1,.654.653v7.58a.654.654,0,0,1-.653.654Z" transform="translate(-283.023 -239.469)" fill="#fff"/>
    <path id="Trazado_98" data-name="Trazado 98" d="M508.673,605.12h-4.966a.654.654,0,0,1-.653-.653v-7.58a.654.654,0,0,1,.654-.653h4.966a.654.654,0,0,1,.653.653v7.58A.654.654,0,0,1,508.673,605.12Z" transform="translate(-285.293 -239.469)" fill="#fff"/>
    <path id="Trazado_99" data-name="Trazado 99" d="M496.732,622.225h-4.966a.654.654,0,0,1-.654-.654v-7.58a.654.654,0,0,1,.654-.653h4.966a.654.654,0,0,1,.654.653v7.58a.654.654,0,0,1-.653.654Z" transform="translate(-283.023 -242.721)" fill="#fff"/>
    <path id="Trazado_100" data-name="Trazado 100" d="M508.673,622.225h-4.966a.654.654,0,0,1-.653-.653v-7.58a.654.654,0,0,1,.654-.653h4.966a.654.654,0,0,1,.653.653v7.58a.654.654,0,0,1-.653.653Z" transform="translate(-285.293 -242.721)" fill="#fff"/>
    <path id="Trazado_101" data-name="Trazado 101" d="M310.948,419.31h-4.933a1.389,1.389,0,0,1-1.387-1.387V406.516a1.389,1.389,0,0,1,1.387-1.387h4.933a1.389,1.389,0,0,1,1.387,1.387v11.407A1.389,1.389,0,0,1,310.948,419.31Z" transform="translate(-247.578 -203.146)" fill="#3f3d56"/>
    <path id="Trazado_102" data-name="Trazado 102" d="M329.864,528.782h-25.28a2.623,2.623,0,0,1-2.621-2.62V424.116a2.623,2.623,0,0,1,2.621-2.621h25.28a2.623,2.623,0,0,1,2.621,2.621V526.162a2.623,2.623,0,0,1-2.621,2.621Z" transform="translate(-247.072 -206.257)" fill="#3f3d56"/>
    <path id="Trazado_103" data-name="Trazado 103" d="M311.213,528.782h-25.28a2.623,2.623,0,0,1-2.621-2.62V424.116a2.623,2.623,0,0,1,2.621-2.621h25.28a2.624,2.624,0,0,1,2.621,2.621V526.162A2.623,2.623,0,0,1,311.213,528.782Z" transform="translate(-243.527 -206.257)" fill="#b1d0c1"/>
    <path id="Trazado_104" data-name="Trazado 104" d="M305.239,419.31h-4.933a1.389,1.389,0,0,1-1.387-1.387V406.516a1.389,1.389,0,0,1,1.387-1.387h4.933a1.389,1.389,0,0,1,1.387,1.387v11.407A1.389,1.389,0,0,1,305.239,419.31Z" transform="translate(-246.493 -203.146)" fill="#b1d0c1"/>
    <path id="Trazado_105" data-name="Trazado 105" d="M297.173,447.584h-5.858a.772.772,0,0,1-.771-.771v-8.94a.772.772,0,0,1,.771-.771h5.858a.772.772,0,0,1,.771.771v8.941a.772.772,0,0,1-.771.771Z" transform="translate(-244.902 -209.223)" fill="#fff"/>
    <path id="Trazado_106" data-name="Trazado 106" d="M311.257,447.584H305.4a.772.772,0,0,1-.771-.771v-8.94a.772.772,0,0,1,.771-.771h5.858a.772.772,0,0,1,.771.771v8.94a.772.772,0,0,1-.771.771Z" transform="translate(-247.578 -209.223)" fill="#fff"/>
    <path id="Trazado_107" data-name="Trazado 107" d="M297.173,467.758h-5.858a.772.772,0,0,1-.771-.771v-8.941a.772.772,0,0,1,.771-.771h5.858a.772.772,0,0,1,.771.771v8.94a.772.772,0,0,1-.771.771Z" transform="translate(-244.902 -213.058)" fill="#fff"/>
    <path id="Trazado_108" data-name="Trazado 108" d="M311.257,467.758H305.4a.772.772,0,0,1-.771-.771v-8.941a.772.772,0,0,1,.771-.771h5.858a.772.772,0,0,1,.771.771v8.94a.772.772,0,0,1-.771.771Z" transform="translate(-247.578 -213.058)" fill="#fff"/>
    <path id="Trazado_109" data-name="Trazado 109" d="M297.173,487.932h-5.858a.772.772,0,0,1-.771-.771v-8.941a.772.772,0,0,1,.771-.771h5.858a.772.772,0,0,1,.771.771v8.94a.772.772,0,0,1-.771.771Z" transform="translate(-244.902 -216.892)" fill="#fff"/>
    <path id="Trazado_110" data-name="Trazado 110" d="M311.257,487.932H305.4a.772.772,0,0,1-.771-.771v-8.941a.772.772,0,0,1,.771-.771h5.858a.772.772,0,0,1,.771.771v8.94a.772.772,0,0,1-.771.771Z" transform="translate(-247.578 -216.892)" fill="#fff"/>
    <path id="Trazado_111" data-name="Trazado 111" d="M297.173,508.106h-5.858a.772.772,0,0,1-.771-.771V498.4a.772.772,0,0,1,.771-.771h5.858a.772.772,0,0,1,.771.771v8.94a.772.772,0,0,1-.771.771Z" transform="translate(-244.902 -220.727)" fill="#fff"/>
    <path id="Trazado_112" data-name="Trazado 112" d="M311.257,508.106H305.4a.772.772,0,0,1-.771-.771V498.4a.772.772,0,0,1,.771-.771h5.858a.772.772,0,0,1,.771.771v8.94a.772.772,0,0,1-.771.771Z" transform="translate(-247.578 -220.727)" fill="#fff"/>
    <path id="Trazado_113" data-name="Trazado 113" d="M297.173,528.28h-5.858a.772.772,0,0,1-.771-.771v-8.94a.772.772,0,0,1,.771-.771h5.858a.772.772,0,0,1,.771.771v8.94a.772.772,0,0,1-.771.771Z" transform="translate(-244.902 -224.561)" fill="#fff"/>
    <path id="Trazado_114" data-name="Trazado 114" d="M311.257,528.28H305.4a.772.772,0,0,1-.771-.771v-8.94a.772.772,0,0,1,.771-.771h5.858a.772.772,0,0,1,.771.771v8.94a.772.772,0,0,1-.771.771Z" transform="translate(-247.578 -224.561)" fill="#fff"/>
    <path id="Trazado_115" data-name="Trazado 115" d="M795.576,581.818h-4.182a1.178,1.178,0,0,1-1.176-1.176v-5.489a1.178,1.178,0,0,1,1.176-1.176h4.182a1.178,1.178,0,0,1,1.176,1.176v5.489A1.178,1.178,0,0,1,795.576,581.818Z" transform="translate(-339.874 -235.239)" fill="#3f3d56"/>
    <path id="Trazado_116" data-name="Trazado 116" d="M834.85,628.049H813.417a2.224,2.224,0,0,1-2.222-2.222v-41.56a2.224,2.224,0,0,1,2.222-2.222H834.85a2.224,2.224,0,0,1,2.222,2.222v41.56A2.224,2.224,0,0,1,834.85,628.049Z" transform="translate(-343.861 -236.773)" fill="#3f3d56"/>
    <path id="Trazado_117" data-name="Trazado 117" d="M815.356,628.049H778.24a2.224,2.224,0,0,1-2.222-2.222v-41.56a2.224,2.224,0,0,1,2.222-2.222h37.117a2.224,2.224,0,0,1,2.222,2.222v41.56A2.224,2.224,0,0,1,815.356,628.049Z" transform="translate(-337.175 -236.773)" fill="#b1d0c1"/>
    <path id="Trazado_118" data-name="Trazado 118" d="M790.735,581.818h-4.182a1.178,1.178,0,0,1-1.176-1.176v-5.489a1.178,1.178,0,0,1,1.176-1.176h4.182a1.177,1.177,0,0,1,1.176,1.176v5.489A1.178,1.178,0,0,1,790.735,581.818Z" transform="translate(-338.954 -235.239)" fill="#b1d0c1"/>
    <path id="Trazado_119" data-name="Trazado 119" d="M797.451,605.293h-4.966a.654.654,0,0,1-.654-.653v-7.58a.654.654,0,0,1,.654-.654h4.966a.654.654,0,0,1,.653.654v7.58A.654.654,0,0,1,797.451,605.293Z" transform="translate(-340.181 -239.502)" fill="#fff"/>
    <path id="Trazado_120" data-name="Trazado 120" d="M809.392,605.293h-4.966a.654.654,0,0,1-.654-.653v-7.58a.654.654,0,0,1,.654-.654h4.966a.654.654,0,0,1,.653.654v7.58a.654.654,0,0,1-.653.654Z" transform="translate(-342.451 -239.502)" fill="#fff"/>
    <path id="Trazado_121" data-name="Trazado 121" d="M797.451,622.4h-4.966a.654.654,0,0,1-.654-.653v-7.58a.654.654,0,0,1,.654-.653h4.966a.654.654,0,0,1,.653.654v7.58a.654.654,0,0,1-.653.654Z" transform="translate(-340.181 -242.753)" fill="#fff"/>
    <path id="Trazado_122" data-name="Trazado 122" d="M809.392,622.4h-4.966a.654.654,0,0,1-.654-.653v-7.58a.654.654,0,0,1,.654-.653h4.966a.654.654,0,0,1,.653.654v7.58a.654.654,0,0,1-.653.654Z" transform="translate(-342.451 -242.753)" fill="#fff"/>
  </g>
</svg>
